<svg xmlns="http://www.w3.org/2000/svg" xmlns:xlink="http://www.w3.org/1999/xlink" width="1432" zoomAndPan="magnify" viewBox="0 0 1074 319.499995" height="426" preserveAspectRatio="xMidYMid meet" version="1.0"><defs><filter x="0%" y="0%" width="100%" height="100%" id="7e5368d839"><feColorMatrix values="0 0 0 0 1 0 0 0 0 1 0 0 0 0 1 0 0 0 1 0" color-interpolation-filters="sRGB"/></filter><g/><mask id="152278d981"><g filter="url(#7e5368d839)"><rect x="-107.4" width="1288.8" fill="#000000" y="-31.95" height="383.399994" fill-opacity="0.8"/></g></mask><clipPath id="7412e451a8"><path d="M 0.128906 0.492188 L 1063 0.492188 L 1063 270.289062 L 0.128906 270.289062 Z M 0.128906 0.492188 " clip-rule="nonzero"/></clipPath><clipPath id="2b984c6ccd"><path d="M 38.320312 0.492188 L 1024.707031 0.492188 C 1045.796875 0.492188 1062.894531 17.589844 1062.894531 38.683594 L 1062.894531 232.097656 C 1062.894531 253.1875 1045.796875 270.289062 1024.707031 270.289062 L 38.320312 270.289062 C 17.226562 270.289062 0.128906 253.1875 0.128906 232.097656 L 0.128906 38.683594 C 0.128906 17.589844 17.226562 0.492188 38.320312 0.492188 Z M 38.320312 0.492188 " clip-rule="nonzero"/></clipPath><clipPath id="2a85e99fb0"><rect x="0" width="1064" y="0" height="271"/></clipPath><clipPath id="f62ca2544e"><path d="M 12.445312 27 L 353.914062 27 L 353.914062 318 L 12.445312 318 Z M 12.445312 27 " clip-rule="nonzero"/></clipPath></defs><g mask="url(#152278d981)"><g transform="matrix(1, 0, 0, 1, 1, 35)"><g clip-path="url(#2a85e99fb0)"><g clip-path="url(#7412e451a8)"><g clip-path="url(#2b984c6ccd)"><path fill="#ffffff" d="M 0.128906 0.492188 L 1062.449219 0.492188 L 1062.449219 270.289062 L 0.128906 270.289062 Z M 0.128906 0.492188 " fill-opacity="1" fill-rule="nonzero"/></g></g></g></g></g><g clip-path="url(#f62ca2544e)"><path fill="#1e7429" d="M 108.917969 266.984375 C 107.332031 266.984375 105.964844 266.925781 104.625 267 C 100.632812 267.234375 97.492188 262.230469 99.667969 258.3125 C 100.164062 257.410156 101.113281 257.222656 102.09375 256.929688 C 101.59375 255.777344 100.398438 255.699219 99.605469 255.109375 C 98.5625 254.332031 97.910156 255.078125 97.039062 255.59375 C 96.125 256.136719 95.035156 256.617188 93.871094 256.523438 C 93.496094 256.492188 93.109375 256.507812 92.765625 256.398438 C 91.632812 256.042969 90.433594 253.695312 90.667969 251.984375 C 90.855469 250.695312 91.910156 250.167969 93.078125 249.699219 C 96.964844 248.160156 100.757812 249.808594 104.597656 249.886719 C 105.792969 249.902344 106.726562 250.898438 106.988281 252.1875 C 107.472656 254.550781 109.835938 254.9375 111.34375 256.152344 C 112.074219 256.742188 112.914062 255.3125 112.804688 254.207031 C 112.648438 252.546875 113.363281 251.347656 114.25 249.980469 C 115.601562 247.914062 117.730469 248.128906 119.566406 247.476562 C 120.140625 247.277344 120.839844 247.382812 121.011719 246.574219 C 121.152344 245.859375 120.714844 245.316406 120.21875 244.992188 C 119.003906 244.214844 117.792969 243.484375 117.203125 242.066406 C 117.140625 241.929688 116.890625 241.726562 116.78125 241.757812 C 114.511719 242.300781 113.457031 240.21875 111.792969 239.472656 C 110.316406 238.804688 109.148438 237.964844 109.058594 236.082031 C 108.964844 234.015625 109.136719 232.210938 111.40625 231.390625 C 111.746094 231.265625 112.027344 231.015625 112.585938 230.65625 C 110.875 230.191406 109.398438 230.363281 107.921875 230.628906 C 104.472656 231.25 101.050781 232.011719 97.585938 232.554688 C 96.171875 232.773438 94.832031 231.949219 93.496094 231.527344 C 91.910156 231.03125 90.589844 229.957031 88.941406 229.523438 C 87.667969 229.179688 87.261719 228.078125 87.746094 226.679688 C 88.570312 224.285156 90.496094 223.335938 92.6875 223.074219 C 94.570312 222.855469 95.253906 221.96875 95.332031 220.101562 C 92.640625 220.863281 91.148438 219.171875 89.984375 217.242188 C 88.957031 215.578125 89.8125 211.242188 91.242188 209.78125 C 92.003906 209.003906 92.578125 208.554688 91.414062 207.402344 C 90.078125 206.066406 91.132812 204.589844 92.222656 203.546875 C 93.355469 202.460938 93.1875 202.039062 91.894531 201.125 C 89.097656 199.132812 86.035156 198.914062 82.847656 199.148438 C 81.09375 199.273438 79.707031 200.5625 78 200.90625 C 77.515625 201 77.019531 201.339844 76.601562 201.015625 C 74.890625 199.707031 73.289062 200.300781 71.890625 201.386719 C 70.023438 202.832031 67.863281 203.453125 65.65625 204.078125 C 62.375 204.992188 59.3125 206.484375 56.265625 207.976562 C 52.785156 209.6875 49.164062 211.101562 45.773438 213.078125 C 43.566406 214.367188 42.199219 216.203125 40.660156 218.035156 C 38.171875 220.988281 36.617188 221.300781 33.089844 219.636719 C 32.980469 219.589844 32.871094 219.511719 32.777344 219.433594 C 30.617188 217.289062 28.613281 218.394531 26.4375 219.574219 C 23.5625 221.144531 20.578125 222.511719 17.609375 223.878906 C 15.570312 224.8125 13.097656 223.617188 12.664062 221.734375 C 12.476562 220.910156 12.710938 220.351562 13.300781 219.964844 C 14.964844 218.890625 16.238281 217.289062 18.121094 216.527344 C 21.261719 215.253906 23.933594 213.171875 26.421875 210.980469 C 29.5 208.242188 33.246094 207.417969 36.976562 206.410156 C 38.1875 206.082031 39.417969 205.679688 40.722656 206.300781 C 41.234375 206.546875 41.980469 206.253906 41.886719 205.507812 C 41.375 201.886719 44.390625 201.449219 46.566406 200.53125 C 49.410156 199.335938 52.519531 199.195312 55.550781 198.699219 C 58.847656 198.152344 61.941406 196.414062 65.5 196.398438 C 66.339844 196.398438 67.179688 195.230469 68.003906 194.5625 C 71.097656 192.074219 74.875 190.941406 78.433594 189.386719 C 82.894531 187.429688 87.371094 185.453125 91.957031 183.820312 C 95.472656 182.578125 97.648438 180.371094 99.355469 177.089844 C 101.363281 173.28125 104.8125 170.53125 108.125 167.871094 C 110.222656 166.195312 112.226562 164.265625 114.871094 163.347656 C 118.710938 162.011719 122.613281 160.800781 126.421875 159.386719 C 129.683594 158.171875 133.042969 157.316406 135.949219 155.078125 C 139.601562 152.265625 144.203125 150.570312 147.15625 146.980469 C 150.71875 142.675781 153.824219 137.917969 151.773438 131.777344 C 150.390625 127.628906 151.570312 123.648438 152.597656 119.667969 C 153.484375 116.21875 154.449219 112.78125 155.332031 109.332031 C 155.832031 107.371094 156.75 106.503906 158.832031 106.457031 C 160.386719 106.410156 161.910156 106.300781 163.386719 105.726562 C 163.898438 105.523438 164.351562 105.304688 164.320312 104.730469 C 164.164062 101.996094 165.871094 100.097656 167.257812 98.078125 C 167.800781 97.300781 167.925781 96.679688 167.644531 95.714844 C 167.085938 93.726562 167.289062 91.640625 167.378906 89.605469 C 167.425781 88.734375 168.097656 88.238281 168.828125 87.785156 C 173.101562 85.160156 177.484375 82.734375 181.929688 80.449219 C 183.144531 79.828125 184.136719 79.019531 184.929688 78.007812 C 186.578125 75.941406 188.847656 75.429688 191.273438 75.023438 C 193.261719 74.683594 195.222656 74.0625 197.179688 73.5625 C 197.988281 73.359375 198.160156 72.597656 198.378906 72.007812 C 198.71875 71.074219 198.984375 70.160156 199.574219 69.320312 C 200.195312 68.433594 199.433594 67.222656 198.269531 67.113281 C 197.398438 67.035156 196.527344 67.066406 195.65625 67.066406 C 194.195312 67.050781 193.230469 66.335938 193.152344 64.90625 C 193.078125 63.429688 194.210938 62.433594 195.78125 62.386719 C 196.777344 62.371094 197.769531 62.386719 198.765625 62.464844 C 200.164062 62.589844 201.175781 62.152344 201.734375 60.785156 C 201.921875 60.335938 202.246094 59.929688 202.589844 59.574219 C 203.769531 58.359375 205.046875 58.46875 206.007812 59.882812 C 207.425781 61.953125 209.179688 63.644531 211.277344 65 C 211.902344 65.386719 212.429688 65.945312 212.941406 66.460938 C 214.480469 67.984375 215.894531 69.644531 217.542969 71.046875 C 221.941406 74.835938 225.144531 79.363281 227.226562 84.832031 C 228.566406 88.347656 230.554688 91.609375 232.25 94.984375 C 233.273438 97.035156 234.921875 98.292969 237.113281 98.964844 C 238.589844 99.414062 240.003906 100.019531 241.4375 100.59375 C 243.613281 101.480469 245.742188 101.417969 247.902344 100.488281 C 250.996094 99.164062 254.355469 98.917969 257.585938 98.171875 C 259.683594 97.6875 261.769531 97.144531 263.835938 96.570312 C 264.207031 96.460938 264.707031 96.039062 264.738281 95.714844 C 265.015625 92.652344 267.535156 92.292969 269.710938 91.515625 C 271.671875 90.816406 273.675781 90.507812 275.726562 90.785156 C 277.359375 91.003906 278.789062 90.335938 280.21875 89.808594 C 282.675781 88.890625 285.085938 88.890625 287.417969 89.976562 C 290.167969 91.269531 293.152344 91.066406 295.828125 90.492188 C 300.273438 89.511719 304.253906 90.710938 308.339844 91.828125 C 311.605469 92.714844 314.730469 94.285156 318.148438 94.378906 C 323.496094 94.515625 327.570312 91.9375 330.742188 87.769531 C 332.140625 85.9375 333.679688 84.257812 335.683594 83.046875 C 336.367188 82.625 337.066406 82.394531 337.796875 82.546875 C 340.875 83.183594 344.09375 83.246094 347 84.445312 C 350.109375 85.71875 352.316406 87.722656 352.691406 91.625 C 353.171875 96.664062 354.257812 101.636719 353.964844 106.734375 C 353.699219 111.105469 351.789062 114.925781 349.671875 118.644531 C 349.066406 119.699219 347.996094 119.996094 346.796875 119.996094 C 343.875 119.980469 340.9375 120.226562 338.03125 119.996094 C 331.378906 119.453125 325.5 121.765625 319.796875 124.722656 C 316.4375 126.460938 312.910156 127.441406 309.148438 127.425781 C 301.328125 127.378906 293.574219 128.621094 285.738281 128.390625 C 283.15625 128.3125 280.625 129.648438 277.980469 130.007812 C 277.5 130.066406 277.050781 130.332031 276.550781 130.128906 C 274.390625 129.230469 272.386719 130.007812 270.425781 130.769531 C 268.140625 131.652344 267.800781 132.492188 268.359375 135.585938 C 268.902344 138.585938 268.390625 141.371094 267.148438 144.105469 C 266.492188 145.535156 265.578125 146.140625 263.992188 146.15625 C 260.664062 146.203125 257.277344 145.738281 254.089844 147.261719 C 251.292969 148.597656 248.523438 150.042969 245.261719 149.902344 C 244.375 149.871094 244.234375 150.726562 243.921875 151.285156 C 242.273438 154.332031 240.628906 157.363281 238.453125 160.101562 C 237.535156 161.234375 236.585938 162.230469 235.375 162.992188 C 231.644531 165.355469 229.792969 168.976562 228.6875 173.097656 C 228.644531 173.28125 228.671875 173.5 228.582031 173.640625 C 226.34375 177.042969 226.328125 180.835938 226.375 184.722656 C 226.402344 186.621094 225.285156 188.296875 224.105469 189.730469 C 222.019531 192.246094 219.828125 194.703125 217.527344 197.050781 C 213.71875 200.953125 209.070312 202.941406 203.570312 202.878906 C 198.84375 202.832031 194.117188 202.894531 189.390625 202.847656 C 187.808594 202.832031 186.34375 202.988281 184.976562 203.9375 C 183.921875 204.667969 182.644531 205.117188 181.496094 205.738281 C 180.40625 206.316406 178.605469 206.625 178.542969 207.761719 C 178.433594 209.71875 178.402344 212.019531 180.066406 213.496094 C 183.625 216.652344 186.003906 220.910156 190.03125 223.679688 C 193.246094 225.886719 193.824219 229.304688 191.847656 232.136719 C 190.667969 233.8125 188.707031 234.699219 186.921875 235.664062 C 182.675781 237.933594 178.199219 239.75 174.144531 242.378906 C 171.003906 244.414062 169.199219 247.246094 169.011719 250.914062 C 168.84375 254.191406 167.535156 256.664062 164.519531 257.9375 C 160.601562 259.585938 158.007812 262.417969 155.863281 265.976562 C 153.5 269.894531 149.347656 270.964844 145.308594 267.792969 C 143.613281 266.457031 141.871094 265.183594 140.132812 263.910156 C 139.757812 263.644531 139.308594 263.222656 138.777344 263.566406 C 138.203125 263.9375 138.40625 264.578125 138.421875 265.105469 C 138.421875 266.085938 139.042969 266.847656 139.414062 267.6875 C 140.832031 270.917969 142.757812 273.886719 144.484375 276.964844 C 144.996094 277.882812 145.214844 278.816406 145.121094 279.8125 C 144.792969 283.089844 146.085938 285.886719 147.792969 288.5 C 149.425781 291.003906 150.671875 293.519531 150.328125 296.628906 C 150.1875 297.84375 150.5625 299.054688 150.808594 300.265625 C 151.277344 302.550781 150.265625 304.652344 149.023438 306.515625 C 147.886719 308.210938 146.300781 309.59375 145.230469 311.320312 C 143.878906 313.480469 141.714844 313.589844 139.664062 313.992188 C 138.359375 314.257812 137.128906 313.867188 135.996094 313.03125 C 134.300781 311.785156 132.21875 311.179688 130.570312 309.828125 C 130.230469 309.546875 129.699219 309.40625 129.328125 309.625 C 126.621094 311.132812 124.058594 310.183594 121.476562 309.269531 C 120.746094 309.003906 120.15625 308.597656 119.597656 309.578125 C 119.097656 310.449219 119.222656 311.070312 119.96875 311.675781 C 120.496094 312.113281 121.011719 312.5625 121.460938 313.078125 C 122.457031 314.226562 122.097656 315.640625 120.777344 316.402344 C 117.359375 318.363281 111.511719 316.882812 109.710938 313.0625 C 109.089844 311.738281 108.15625 310.542969 107.503906 309.191406 C 106.367188 306.859375 106.570312 305.644531 108.824219 304.433594 C 110.191406 303.6875 110.378906 302.988281 109.726562 301.683594 C 108.558594 299.367188 108.667969 298.402344 110.535156 296.566406 C 111.839844 295.292969 112.195312 294.3125 110.84375 292.726562 C 109.492188 291.144531 108.574219 289.199219 107.441406 287.441406 C 107.144531 286.976562 106.757812 286.542969 106.132812 286.480469 C 103.617188 286.199219 101.144531 285.78125 98.71875 285.003906 C 97.710938 284.675781 97.132812 285.40625 96.636719 286.183594 C 95.703125 287.644531 94.925781 289.199219 93.683594 290.441406 C 92.144531 291.996094 89.640625 291.453125 88.632812 289.511719 C 88.132812 288.5625 88.507812 287.941406 89.066406 287.351562 C 90.558594 285.8125 91.335938 284.117188 91.226562 281.863281 C 91.101562 279.21875 94.273438 277.324219 96.871094 278.289062 C 99.015625 279.078125 101.128906 279.902344 103.257812 280.742188 C 103.863281 280.976562 104.503906 281.195312 105.015625 280.757812 C 105.542969 280.324219 105.046875 279.886719 104.828125 279.453125 C 104.597656 278.972656 104.734375 278.503906 104.984375 278.039062 C 105.574219 276.871094 105.402344 275.613281 105.402344 274.386719 C 105.402344 273.625 105.109375 273.0625 104.238281 272.972656 C 103.523438 272.894531 102.964844 272.472656 102.464844 272.007812 C 101.859375 271.433594 101.425781 270.734375 101.75 269.847656 C 102.078125 268.960938 102.746094 268.417969 103.710938 268.371094 C 104.765625 268.324219 105.824219 268.355469 106.878906 268.339844 C 107.65625 268.324219 108.402344 268.261719 108.917969 266.984375 Z M 226.046875 45.628906 C 227.460938 44.105469 229.234375 40.484375 228.535156 38.539062 C 227.398438 35.371094 226.605469 32.058594 224.398438 29.308594 C 222.625 27.085938 219.238281 26.417969 216.875 28.171875 C 214.125 30.210938 211.683594 32.585938 209.351562 35.074219 C 208.855469 35.617188 208.246094 36.148438 208.699219 37.019531 C 209.117188 37.839844 209.414062 38.773438 210.625 38.710938 C 211.589844 38.648438 212.554688 39.039062 212.601562 39.988281 C 212.648438 40.996094 211.464844 41.105469 210.703125 41.433594 C 210.53125 41.511719 210.332031 41.464844 210.160156 41.511719 C 207.640625 42.101562 205.109375 45.628906 205.339844 48.226562 C 205.480469 49.859375 206.722656 50.324219 208.015625 50.605469 C 208.992188 50.820312 209.925781 50.527344 210.875 50.089844 C 213.59375 48.816406 216.144531 46.902344 219.441406 47.679688 C 221.957031 47.976562 224.132812 47.664062 226.046875 45.628906 Z M 224.878906 66.164062 C 229.527344 63.398438 233.710938 59.804688 237.207031 55.609375 C 238.808594 53.695312 237.707031 51.660156 235.03125 51.382812 C 233.757812 51.242188 232.792969 50.820312 232.015625 49.84375 C 231.671875 49.40625 231.160156 49.15625 230.679688 48.878906 C 228.582031 47.664062 226.402344 47.851562 224.117188 48.179688 C 221.117188 48.613281 219.207031 51.535156 220.324219 54.335938 C 220.527344 54.863281 221.148438 55.5 220.339844 55.949219 C 218.027344 57.304688 217.902344 59.480469 218.011719 61.359375 C 217.996094 66.753906 220.667969 68.683594 224.878906 66.164062 Z M 144.390625 87.273438 C 144.4375 86.261719 144.171875 85.378906 143.207031 84.941406 C 142.246094 84.507812 141.390625 84.910156 140.722656 85.65625 C 139.679688 86.839844 138.34375 87.722656 136.976562 88.347656 C 134.519531 89.464844 132.699219 91.269531 130.960938 93.179688 C 129.171875 95.125 129.777344 98.109375 131.9375 99.632812 C 133.804688 100.9375 135.546875 100.253906 137.410156 99.910156 C 139.308594 99.570312 141.0625 98.574219 141.792969 97.113281 C 143.085938 94.59375 144.609375 92 144.390625 88.9375 C 144.375 88.394531 144.359375 87.832031 144.390625 87.273438 Z M 144.390625 87.273438 " fill-opacity="1" fill-rule="nonzero"/></g><g fill="#292929" fill-opacity="1"><g transform="translate(212.511302, 265.15946)"><g><path d="M 24.503906 -30.175781 L 24.503906 -35.140625 L 4.21875 -35.140625 L 4.21875 0 L 24.503906 0 L 24.503906 -4.964844 L 9.605469 -4.964844 L 9.605469 -15.085938 L 22.539062 -15.085938 L 22.539062 -20.054688 L 9.605469 -20.054688 L 9.605469 -30.175781 Z M 24.503906 -30.175781 "/></g></g></g><g fill="#292929" fill-opacity="1"><g transform="translate(239.120675, 265.15946)"><g><path d="M 15.085938 -23.894531 C 12.652344 -23.894531 10.683594 -23.050781 9.136719 -21.460938 L 9.136719 -35.140625 L 3.9375 -35.140625 L 3.9375 0 L 9.136719 0 L 9.136719 -14.570312 C 9.136719 -15.835938 9.558594 -16.914062 10.496094 -17.804688 C 11.386719 -18.695312 12.511719 -19.164062 13.867188 -19.164062 C 15.132812 -19.164062 16.210938 -18.742188 17.101562 -17.898438 C 17.945312 -17.054688 18.414062 -15.976562 18.414062 -14.757812 L 18.414062 0 L 23.613281 0 L 23.613281 -15.226562 C 23.613281 -17.664062 22.769531 -19.679688 21.132812 -21.367188 C 19.492188 -23.050781 17.476562 -23.894531 15.085938 -23.894531 Z M 15.085938 -23.894531 "/></g></g></g><g fill="#292929" fill-opacity="1"><g transform="translate(266.198519, 265.15946)"><g><path d="M 6.511719 -29.285156 C 7.355469 -29.285156 8.105469 -29.566406 8.761719 -30.175781 C 9.371094 -30.785156 9.699219 -31.535156 9.699219 -32.421875 C 9.699219 -33.265625 9.371094 -34.015625 8.761719 -34.671875 C 8.105469 -35.28125 7.355469 -35.609375 6.511719 -35.609375 C 5.621094 -35.609375 4.871094 -35.28125 4.265625 -34.671875 C 3.609375 -34.015625 3.328125 -33.265625 3.328125 -32.421875 C 3.328125 -31.535156 3.609375 -30.785156 4.265625 -30.175781 C 4.871094 -29.566406 5.621094 -29.285156 6.511719 -29.285156 Z M 3.890625 0 L 9.136719 0 L 9.136719 -23.425781 L 3.890625 -23.425781 Z M 3.890625 0 "/></g></g></g><g fill="#292929" fill-opacity="1"><g transform="translate(279.268971, 265.15946)"><g><path d="M 28.207031 -23.894531 C 25.300781 -23.894531 23.003906 -22.675781 21.273438 -20.335938 C 20.476562 -21.414062 19.492188 -22.257812 18.320312 -22.910156 C 17.148438 -23.566406 15.929688 -23.894531 14.710938 -23.894531 C 12.464844 -23.894531 10.636719 -22.957031 9.136719 -21.179688 L 9.136719 -23.425781 L 3.9375 -23.425781 L 3.9375 0 L 9.136719 0 L 9.136719 -14.382812 C 9.136719 -15.695312 9.511719 -16.773438 10.355469 -17.664062 C 11.152344 -18.507812 12.183594 -18.976562 13.496094 -18.976562 C 14.710938 -18.976562 15.742188 -18.554688 16.585938 -17.710938 C 17.429688 -16.867188 17.851562 -15.789062 17.851562 -14.570312 L 17.851562 0 L 23.050781 0 L 23.050781 -14.382812 C 23.050781 -15.695312 23.425781 -16.773438 24.269531 -17.664062 C 25.066406 -18.507812 26.097656 -18.976562 27.363281 -18.976562 C 28.582031 -18.976562 29.613281 -18.554688 30.457031 -17.710938 C 31.300781 -16.867188 31.722656 -15.789062 31.722656 -14.570312 L 31.722656 0 L 36.921875 0 L 36.921875 -14.851562 C 36.921875 -17.382812 36.078125 -19.492188 34.390625 -21.273438 C 32.703125 -23.003906 30.644531 -23.894531 28.207031 -23.894531 Z M 28.207031 -23.894531 "/></g></g></g><g fill="#292929" fill-opacity="1"><g transform="translate(319.651497, 265.15946)"><g><path d="M 26.707031 -11.902344 C 26.660156 -15.367188 25.488281 -18.273438 23.191406 -20.523438 C 20.898438 -22.769531 18.039062 -23.894531 14.664062 -23.894531 C 11.105469 -23.894531 8.152344 -22.722656 5.808594 -20.382812 C 3.46875 -18.039062 2.296875 -15.132812 2.296875 -11.714844 C 2.296875 -8.246094 3.421875 -5.339844 5.761719 -3 C 8.058594 -0.65625 11.058594 0.46875 14.804688 0.46875 C 17.148438 0.46875 19.257812 -0.09375 21.179688 -1.265625 C 23.050781 -2.390625 24.503906 -3.984375 25.488281 -5.949219 L 21.039062 -7.730469 C 19.585938 -5.339844 17.476562 -4.171875 14.710938 -4.171875 C 12.839844 -4.171875 11.199219 -4.777344 9.839844 -5.996094 C 8.480469 -7.214844 7.730469 -8.808594 7.542969 -10.777344 L 26.660156 -10.777344 Z M 14.617188 -19.351562 C 16.117188 -19.351562 17.429688 -18.929688 18.554688 -18.132812 C 19.679688 -17.289062 20.476562 -16.164062 20.992188 -14.757812 L 8.058594 -14.757812 C 8.574219 -16.164062 9.417969 -17.242188 10.589844 -18.085938 C 11.714844 -18.929688 13.074219 -19.351562 14.617188 -19.351562 Z M 14.617188 -19.351562 "/></g></g></g><g fill="#292929" fill-opacity="1"><g transform="translate(348.650093, 265.15946)"><g/></g></g><g fill="#292929" fill-opacity="1"><g transform="translate(361.486305, 265.15946)"><g><path d="M 22.675781 -17.898438 C 25.675781 -19.445312 27.175781 -22.023438 27.175781 -25.628906 C 27.175781 -28.441406 26.191406 -30.691406 24.269531 -32.46875 C 22.304688 -34.25 19.914062 -35.140625 17.101562 -35.140625 L 3.9375 -35.140625 L 3.9375 0 L 18.835938 0 C 21.648438 0 24.035156 -0.84375 25.910156 -2.578125 C 27.785156 -4.3125 28.769531 -6.605469 28.769531 -9.417969 C 28.769531 -11.574219 28.207031 -13.355469 27.128906 -14.804688 C 26.050781 -16.210938 24.550781 -17.242188 22.675781 -17.898438 Z M 21.789062 -25.113281 C 21.789062 -23.660156 21.273438 -22.445312 20.242188 -21.460938 C 19.210938 -20.429688 17.945312 -19.960938 16.492188 -19.960938 L 9.324219 -19.960938 L 9.324219 -30.082031 L 16.492188 -30.082031 C 17.945312 -30.082031 19.210938 -29.566406 20.242188 -28.628906 C 21.273438 -27.691406 21.789062 -26.519531 21.789062 -25.113281 Z M 18.085938 -5.058594 L 9.324219 -5.058594 L 9.324219 -15.179688 L 18.085938 -15.179688 C 19.539062 -15.179688 20.804688 -14.664062 21.835938 -13.679688 C 22.863281 -12.699219 23.378906 -11.480469 23.378906 -10.074219 C 23.378906 -8.621094 22.863281 -7.402344 21.835938 -6.464844 C 20.804688 -5.527344 19.585938 -5.058594 18.085938 -5.058594 Z M 18.085938 -5.058594 "/></g></g></g><g fill="#292929" fill-opacity="1"><g transform="translate(392.593041, 265.15946)"><g><path d="M 21.929688 -23.425781 L 21.929688 -20.476562 C 19.867188 -22.722656 17.195312 -23.894531 13.914062 -23.894531 C 10.730469 -23.894531 7.964844 -22.675781 5.714844 -20.335938 C 3.421875 -17.945312 2.296875 -15.085938 2.296875 -11.714844 C 2.296875 -8.339844 3.421875 -5.433594 5.714844 -3.09375 C 7.964844 -0.703125 10.730469 0.46875 13.914062 0.46875 C 17.195312 0.46875 19.867188 -0.65625 21.929688 -2.953125 L 21.929688 0 L 27.175781 0 L 27.175781 -23.425781 Z M 14.804688 -4.453125 C 12.746094 -4.453125 11.011719 -5.152344 9.605469 -6.558594 C 8.199219 -7.964844 7.496094 -9.652344 7.496094 -11.714844 C 7.496094 -13.726562 8.199219 -15.460938 9.605469 -16.867188 C 11.011719 -18.273438 12.746094 -18.976562 14.804688 -18.976562 C 16.820312 -18.976562 18.554688 -18.273438 19.960938 -16.867188 C 21.367188 -15.460938 22.070312 -13.726562 22.070312 -11.714844 C 22.070312 -9.652344 21.367188 -7.964844 19.960938 -6.558594 C 18.554688 -5.152344 16.820312 -4.453125 14.804688 -4.453125 Z M 14.804688 -4.453125 "/></g></g></g><g fill="#292929" fill-opacity="1"><g transform="translate(423.699777, 265.15946)"><g><path d="M 3.9375 0 L 9.136719 0 L 9.136719 -35.140625 L 3.9375 -35.140625 Z M 3.9375 0 "/></g></g></g><g fill="#292929" fill-opacity="1"><g transform="translate(436.770229, 265.15946)"><g><path d="M 14.804688 0.46875 C 18.273438 0.46875 21.226562 -0.703125 23.660156 -3.046875 C 26.097656 -5.386719 27.316406 -8.292969 27.316406 -11.714844 C 27.316406 -15.085938 26.097656 -17.992188 23.660156 -20.335938 C 21.226562 -22.675781 18.273438 -23.894531 14.804688 -23.894531 C 11.292969 -23.894531 8.339844 -22.675781 5.902344 -20.335938 C 3.46875 -17.992188 2.296875 -15.085938 2.296875 -11.714844 C 2.296875 -8.292969 3.46875 -5.386719 5.902344 -3.046875 C 8.339844 -0.703125 11.292969 0.46875 14.804688 0.46875 Z M 14.804688 -4.453125 C 12.746094 -4.453125 11.011719 -5.152344 9.605469 -6.558594 C 8.199219 -7.964844 7.496094 -9.652344 7.496094 -11.714844 C 7.496094 -13.726562 8.199219 -15.460938 9.605469 -16.867188 C 11.011719 -18.273438 12.746094 -18.976562 14.804688 -18.976562 C 16.820312 -18.976562 18.554688 -18.273438 19.960938 -16.867188 C 21.367188 -15.460938 22.070312 -13.726562 22.070312 -11.714844 C 22.070312 -9.652344 21.367188 -7.964844 19.960938 -6.558594 C 18.554688 -5.152344 16.820312 -4.453125 14.804688 -4.453125 Z M 14.804688 -4.453125 "/></g></g></g><g fill="#292929" fill-opacity="1"><g transform="translate(466.377841, 265.15946)"><g><path d="M 14.804688 0.46875 C 18.273438 0.46875 21.226562 -0.703125 23.660156 -3.046875 C 26.097656 -5.386719 27.316406 -8.292969 27.316406 -11.714844 C 27.316406 -15.085938 26.097656 -17.992188 23.660156 -20.335938 C 21.226562 -22.675781 18.273438 -23.894531 14.804688 -23.894531 C 11.292969 -23.894531 8.339844 -22.675781 5.902344 -20.335938 C 3.46875 -17.992188 2.296875 -15.085938 2.296875 -11.714844 C 2.296875 -8.292969 3.46875 -5.386719 5.902344 -3.046875 C 8.339844 -0.703125 11.292969 0.46875 14.804688 0.46875 Z M 14.804688 -4.453125 C 12.746094 -4.453125 11.011719 -5.152344 9.605469 -6.558594 C 8.199219 -7.964844 7.496094 -9.652344 7.496094 -11.714844 C 7.496094 -13.726562 8.199219 -15.460938 9.605469 -16.867188 C 11.011719 -18.273438 12.746094 -18.976562 14.804688 -18.976562 C 16.820312 -18.976562 18.554688 -18.273438 19.960938 -16.867188 C 21.367188 -15.460938 22.070312 -13.726562 22.070312 -11.714844 C 22.070312 -9.652344 21.367188 -7.964844 19.960938 -6.558594 C 18.554688 -5.152344 16.820312 -4.453125 14.804688 -4.453125 Z M 14.804688 -4.453125 "/></g></g></g><g fill="#292929" fill-opacity="1"><g transform="translate(495.985453, 265.15946)"><g><path d="M 15.179688 -23.894531 C 12.839844 -23.894531 10.824219 -23.050781 9.136719 -21.460938 L 9.136719 -23.425781 L 3.9375 -23.425781 L 3.9375 0 L 9.136719 0 L 9.136719 -14.570312 C 9.136719 -15.835938 9.558594 -16.914062 10.496094 -17.804688 C 11.386719 -18.695312 12.511719 -19.164062 13.867188 -19.164062 C 15.132812 -19.164062 16.210938 -18.742188 17.101562 -17.898438 C 17.945312 -17.054688 18.414062 -15.976562 18.414062 -14.757812 L 18.414062 0 L 23.613281 0 L 23.613281 -15.226562 C 23.613281 -17.617188 22.769531 -19.679688 21.132812 -21.367188 C 19.492188 -23.050781 17.523438 -23.894531 15.179688 -23.894531 Z M 15.179688 -23.894531 "/></g></g></g><g fill="#292929" fill-opacity="1"><g transform="translate(523.063298, 265.15946)"><g/></g></g><g fill="#292929" fill-opacity="1"><g transform="translate(535.899509, 265.15946)"><g><path d="M 3.9375 0 L 14.335938 0 C 19.445312 0 23.660156 -1.6875 27.035156 -5.058594 C 30.363281 -8.433594 32.046875 -12.605469 32.046875 -17.570312 C 32.046875 -22.492188 30.363281 -26.660156 27.035156 -30.035156 C 23.660156 -33.40625 19.445312 -35.140625 14.335938 -35.140625 L 3.9375 -35.140625 Z M 9.324219 -5.058594 L 9.324219 -30.082031 L 14.148438 -30.082031 C 17.757812 -30.082031 20.710938 -28.863281 23.050781 -26.519531 C 25.347656 -24.128906 26.519531 -21.132812 26.519531 -17.570312 C 26.519531 -13.960938 25.347656 -10.964844 23.050781 -8.621094 C 20.710938 -6.230469 17.757812 -5.058594 14.148438 -5.058594 Z M 9.324219 -5.058594 "/></g></g></g><g fill="#292929" fill-opacity="1"><g transform="translate(570.613492, 265.15946)"><g><path d="M 21.929688 -23.425781 L 21.929688 -20.476562 C 19.867188 -22.722656 17.195312 -23.894531 13.914062 -23.894531 C 10.730469 -23.894531 7.964844 -22.675781 5.714844 -20.335938 C 3.421875 -17.945312 2.296875 -15.085938 2.296875 -11.714844 C 2.296875 -8.339844 3.421875 -5.433594 5.714844 -3.09375 C 7.964844 -0.703125 10.730469 0.46875 13.914062 0.46875 C 17.195312 0.46875 19.867188 -0.65625 21.929688 -2.953125 L 21.929688 0 L 27.175781 0 L 27.175781 -23.425781 Z M 14.804688 -4.453125 C 12.746094 -4.453125 11.011719 -5.152344 9.605469 -6.558594 C 8.199219 -7.964844 7.496094 -9.652344 7.496094 -11.714844 C 7.496094 -13.726562 8.199219 -15.460938 9.605469 -16.867188 C 11.011719 -18.273438 12.746094 -18.976562 14.804688 -18.976562 C 16.820312 -18.976562 18.554688 -18.273438 19.960938 -16.867188 C 21.367188 -15.460938 22.070312 -13.726562 22.070312 -11.714844 C 22.070312 -9.652344 21.367188 -7.964844 19.960938 -6.558594 C 18.554688 -5.152344 16.820312 -4.453125 14.804688 -4.453125 Z M 14.804688 -4.453125 "/></g></g></g><g fill="#292929" fill-opacity="1"><g transform="translate(601.720228, 265.15946)"><g><path d="M 15.742188 -23.425781 L 11.011719 -23.425781 L 11.011719 -31.859375 L 5.761719 -31.859375 L 5.761719 -23.425781 L 1.03125 -23.425781 L 1.03125 -19.023438 L 5.761719 -19.023438 L 5.761719 0 L 11.011719 0 L 11.011719 -19.023438 L 15.742188 -19.023438 Z M 15.742188 -23.425781 "/></g></g></g><g fill="#292929" fill-opacity="1"><g transform="translate(618.491647, 265.15946)"><g><path d="M 21.929688 -23.425781 L 21.929688 -20.476562 C 19.867188 -22.722656 17.195312 -23.894531 13.914062 -23.894531 C 10.730469 -23.894531 7.964844 -22.675781 5.714844 -20.335938 C 3.421875 -17.945312 2.296875 -15.085938 2.296875 -11.714844 C 2.296875 -8.339844 3.421875 -5.433594 5.714844 -3.09375 C 7.964844 -0.703125 10.730469 0.46875 13.914062 0.46875 C 17.195312 0.46875 19.867188 -0.65625 21.929688 -2.953125 L 21.929688 0 L 27.175781 0 L 27.175781 -23.425781 Z M 14.804688 -4.453125 C 12.746094 -4.453125 11.011719 -5.152344 9.605469 -6.558594 C 8.199219 -7.964844 7.496094 -9.652344 7.496094 -11.714844 C 7.496094 -13.726562 8.199219 -15.460938 9.605469 -16.867188 C 11.011719 -18.273438 12.746094 -18.976562 14.804688 -18.976562 C 16.820312 -18.976562 18.554688 -18.273438 19.960938 -16.867188 C 21.367188 -15.460938 22.070312 -13.726562 22.070312 -11.714844 C 22.070312 -9.652344 21.367188 -7.964844 19.960938 -6.558594 C 18.554688 -5.152344 16.820312 -4.453125 14.804688 -4.453125 Z M 14.804688 -4.453125 "/></g></g></g><g fill="#292929" fill-opacity="1"><g transform="translate(649.598383, 265.15946)"><g/></g></g><g fill="#292929" fill-opacity="1"><g transform="translate(662.434595, 265.15946)"><g><path d="M 28.253906 0 L 34.109375 0 L 20.007812 -35.140625 L 13.960938 -35.140625 L -0.140625 0 L 5.714844 0 L 8.621094 -7.542969 L 25.347656 -7.542969 Z M 10.496094 -12.371094 L 17.007812 -29.332031 L 23.519531 -12.371094 Z M 10.496094 -12.371094 "/></g></g></g><g fill="#292929" fill-opacity="1"><g transform="translate(696.399025, 265.15946)"><g><path d="M 15.179688 -23.894531 C 12.839844 -23.894531 10.824219 -23.050781 9.136719 -21.460938 L 9.136719 -23.425781 L 3.9375 -23.425781 L 3.9375 0 L 9.136719 0 L 9.136719 -14.570312 C 9.136719 -15.835938 9.558594 -16.914062 10.496094 -17.804688 C 11.386719 -18.695312 12.511719 -19.164062 13.867188 -19.164062 C 15.132812 -19.164062 16.210938 -18.742188 17.101562 -17.898438 C 17.945312 -17.054688 18.414062 -15.976562 18.414062 -14.757812 L 18.414062 0 L 23.613281 0 L 23.613281 -15.226562 C 23.613281 -17.617188 22.769531 -19.679688 21.132812 -21.367188 C 19.492188 -23.050781 17.523438 -23.894531 15.179688 -23.894531 Z M 15.179688 -23.894531 "/></g></g></g><g fill="#292929" fill-opacity="1"><g transform="translate(723.476852, 265.15946)"><g><path d="M 21.929688 -23.425781 L 21.929688 -20.476562 C 19.867188 -22.722656 17.195312 -23.894531 13.914062 -23.894531 C 10.730469 -23.894531 7.964844 -22.675781 5.714844 -20.335938 C 3.421875 -17.945312 2.296875 -15.085938 2.296875 -11.714844 C 2.296875 -8.339844 3.421875 -5.433594 5.714844 -3.09375 C 7.964844 -0.703125 10.730469 0.46875 13.914062 0.46875 C 17.195312 0.46875 19.867188 -0.65625 21.929688 -2.953125 L 21.929688 0 L 27.175781 0 L 27.175781 -23.425781 Z M 14.804688 -4.453125 C 12.746094 -4.453125 11.011719 -5.152344 9.605469 -6.558594 C 8.199219 -7.964844 7.496094 -9.652344 7.496094 -11.714844 C 7.496094 -13.726562 8.199219 -15.460938 9.605469 -16.867188 C 11.011719 -18.273438 12.746094 -18.976562 14.804688 -18.976562 C 16.820312 -18.976562 18.554688 -18.273438 19.960938 -16.867188 C 21.367188 -15.460938 22.070312 -13.726562 22.070312 -11.714844 C 22.070312 -9.652344 21.367188 -7.964844 19.960938 -6.558594 C 18.554688 -5.152344 16.820312 -4.453125 14.804688 -4.453125 Z M 14.804688 -4.453125 "/></g></g></g><g fill="#292929" fill-opacity="1"><g transform="translate(754.583588, 265.15946)"><g><path d="M 3.9375 0 L 9.136719 0 L 9.136719 -35.140625 L 3.9375 -35.140625 Z M 3.9375 0 "/></g></g></g><g fill="#292929" fill-opacity="1"><g transform="translate(767.654057, 265.15946)"><g><path d="M 18.648438 -23.425781 L 12.371094 -6.417969 L 5.902344 -23.425781 L 0.1875 -23.425781 L 9.746094 -0.28125 L 4.871094 11.714844 L 10.308594 11.714844 L 14.523438 1.3125 L 24.410156 -23.425781 Z M 18.648438 -23.425781 "/></g></g></g><g fill="#292929" fill-opacity="1"><g transform="translate(792.248967, 265.15946)"><g><path d="M 10.730469 0.46875 C 13.167969 0.46875 15.179688 -0.1875 16.679688 -1.546875 C 18.179688 -2.859375 18.929688 -4.636719 18.929688 -6.792969 C 18.929688 -7.777344 18.742188 -8.667969 18.367188 -9.464844 C 17.992188 -10.261719 17.429688 -10.964844 16.679688 -11.527344 C 15.929688 -12.089844 15.273438 -12.511719 14.617188 -12.886719 C 13.960938 -13.214844 13.214844 -13.542969 12.277344 -13.914062 C 12.183594 -13.914062 12.136719 -13.960938 12.042969 -14.007812 L 11.808594 -14.054688 C 11.761719 -14.054688 11.714844 -14.101562 11.621094 -14.195312 C 9.089844 -15.132812 7.824219 -16.164062 7.824219 -17.242188 C 7.824219 -18.039062 8.105469 -18.648438 8.667969 -19.070312 C 9.230469 -19.492188 9.980469 -19.679688 10.917969 -19.632812 C 12.699219 -19.539062 13.960938 -18.835938 14.757812 -17.570312 L 18.273438 -20.382812 C 17.429688 -21.460938 16.304688 -22.304688 14.945312 -22.957031 C 13.589844 -23.566406 12.183594 -23.894531 10.777344 -23.894531 C 8.386719 -23.894531 6.417969 -23.238281 4.917969 -21.976562 C 3.375 -20.664062 2.625 -18.976562 2.625 -16.867188 C 2.625 -15.085938 3.140625 -13.679688 4.21875 -12.605469 C 5.246094 -11.527344 6.839844 -10.636719 8.949219 -9.886719 L 9.652344 -9.605469 C 10.777344 -9.183594 11.527344 -8.902344 11.902344 -8.714844 C 12.277344 -8.527344 12.652344 -8.246094 13.074219 -7.871094 C 13.449219 -7.449219 13.679688 -6.980469 13.679688 -6.511719 C 13.679688 -5.667969 13.355469 -5.011719 12.699219 -4.542969 C 12.042969 -4.078125 11.199219 -3.84375 10.121094 -3.890625 C 8.105469 -3.984375 6.511719 -4.824219 5.339844 -6.511719 L 1.640625 -3.84375 C 2.4375 -2.53125 3.703125 -1.5 5.386719 -0.703125 C 7.074219 0.09375 8.855469 0.46875 10.730469 0.46875 Z M 10.730469 0.46875 "/></g></g></g><g fill="#292929" fill-opacity="1"><g transform="translate(812.768151, 265.15946)"><g><path d="M 6.511719 -29.285156 C 7.355469 -29.285156 8.105469 -29.566406 8.761719 -30.175781 C 9.371094 -30.785156 9.699219 -31.535156 9.699219 -32.421875 C 9.699219 -33.265625 9.371094 -34.015625 8.761719 -34.671875 C 8.105469 -35.28125 7.355469 -35.609375 6.511719 -35.609375 C 5.621094 -35.609375 4.871094 -35.28125 4.265625 -34.671875 C 3.609375 -34.015625 3.328125 -33.265625 3.328125 -32.421875 C 3.328125 -31.535156 3.609375 -30.785156 4.265625 -30.175781 C 4.871094 -29.566406 5.621094 -29.285156 6.511719 -29.285156 Z M 3.890625 0 L 9.136719 0 L 9.136719 -23.425781 L 3.890625 -23.425781 Z M 3.890625 0 "/></g></g></g><g fill="#292929" fill-opacity="1"><g transform="translate(825.838585, 265.15946)"><g><path d="M 10.730469 0.46875 C 13.167969 0.46875 15.179688 -0.1875 16.679688 -1.546875 C 18.179688 -2.859375 18.929688 -4.636719 18.929688 -6.792969 C 18.929688 -7.777344 18.742188 -8.667969 18.367188 -9.464844 C 17.992188 -10.261719 17.429688 -10.964844 16.679688 -11.527344 C 15.929688 -12.089844 15.273438 -12.511719 14.617188 -12.886719 C 13.960938 -13.214844 13.214844 -13.542969 12.277344 -13.914062 C 12.183594 -13.914062 12.136719 -13.960938 12.042969 -14.007812 L 11.808594 -14.054688 C 11.761719 -14.054688 11.714844 -14.101562 11.621094 -14.195312 C 9.089844 -15.132812 7.824219 -16.164062 7.824219 -17.242188 C 7.824219 -18.039062 8.105469 -18.648438 8.667969 -19.070312 C 9.230469 -19.492188 9.980469 -19.679688 10.917969 -19.632812 C 12.699219 -19.539062 13.960938 -18.835938 14.757812 -17.570312 L 18.273438 -20.382812 C 17.429688 -21.460938 16.304688 -22.304688 14.945312 -22.957031 C 13.589844 -23.566406 12.183594 -23.894531 10.777344 -23.894531 C 8.386719 -23.894531 6.417969 -23.238281 4.917969 -21.976562 C 3.375 -20.664062 2.625 -18.976562 2.625 -16.867188 C 2.625 -15.085938 3.140625 -13.679688 4.21875 -12.605469 C 5.246094 -11.527344 6.839844 -10.636719 8.949219 -9.886719 L 9.652344 -9.605469 C 10.777344 -9.183594 11.527344 -8.902344 11.902344 -8.714844 C 12.277344 -8.527344 12.652344 -8.246094 13.074219 -7.871094 C 13.449219 -7.449219 13.679688 -6.980469 13.679688 -6.511719 C 13.679688 -5.667969 13.355469 -5.011719 12.699219 -4.542969 C 12.042969 -4.078125 11.199219 -3.84375 10.121094 -3.890625 C 8.105469 -3.984375 6.511719 -4.824219 5.339844 -6.511719 L 1.640625 -3.84375 C 2.4375 -2.53125 3.703125 -1.5 5.386719 -0.703125 C 7.074219 0.09375 8.855469 0.46875 10.730469 0.46875 Z M 10.730469 0.46875 "/></g></g></g><g fill="#292929" fill-opacity="1"><g transform="translate(846.357768, 265.15946)"><g/></g></g><g fill="#292929" fill-opacity="1"><g transform="translate(859.193944, 265.15946)"><g><path d="M 13.542969 0.46875 C 16.726562 0.46875 19.445312 -0.421875 21.601562 -2.25 C 23.753906 -4.03125 24.832031 -6.464844 24.832031 -9.558594 C 24.832031 -11.246094 24.503906 -12.699219 23.894531 -13.960938 C 23.285156 -15.226562 22.492188 -16.257812 21.507812 -17.007812 C 20.523438 -17.757812 19.445312 -18.414062 18.273438 -18.976562 C 17.054688 -19.539062 15.882812 -20.054688 14.710938 -20.523438 C 13.496094 -20.945312 12.417969 -21.414062 11.433594 -21.882812 C 10.449219 -22.351562 9.652344 -22.957031 9.042969 -23.707031 C 8.433594 -24.457031 8.152344 -25.300781 8.152344 -26.332031 C 8.152344 -27.691406 8.621094 -28.722656 9.558594 -29.472656 C 10.496094 -30.222656 11.714844 -30.597656 13.167969 -30.597656 C 15.601562 -30.597656 17.664062 -29.566406 19.257812 -27.503906 L 23.050781 -30.972656 C 21.929688 -32.375 20.476562 -33.5 18.742188 -34.34375 C 17.007812 -35.1875 15.132812 -35.609375 13.167969 -35.609375 C 10.261719 -35.609375 7.777344 -34.71875 5.808594 -32.984375 C 3.796875 -31.207031 2.8125 -28.863281 2.8125 -25.910156 C 2.8125 -24.316406 3.09375 -22.957031 3.703125 -21.789062 C 4.3125 -20.570312 5.105469 -19.632812 6.089844 -18.929688 C 7.074219 -18.226562 8.152344 -17.617188 9.371094 -17.054688 C 10.542969 -16.492188 11.714844 -16.023438 12.933594 -15.554688 C 14.101562 -15.085938 15.179688 -14.617188 16.164062 -14.148438 C 17.148438 -13.632812 17.945312 -12.980469 18.554688 -12.230469 C 19.164062 -11.433594 19.492188 -10.542969 19.492188 -9.511719 C 19.492188 -8.011719 18.929688 -6.792969 17.851562 -5.949219 C 16.726562 -5.105469 15.320312 -4.683594 13.589844 -4.683594 C 11.808594 -4.683594 10.214844 -5.105469 8.902344 -6.042969 C 7.589844 -6.933594 6.605469 -8.152344 5.949219 -9.746094 L 1.359375 -6.933594 C 2.390625 -4.683594 3.984375 -2.90625 6.136719 -1.546875 C 8.292969 -0.1875 10.777344 0.46875 13.542969 0.46875 Z M 13.542969 0.46875 "/></g></g></g><g fill="#292929" fill-opacity="1"><g transform="translate(885.522218, 265.15946)"><g><path d="M 18.648438 -23.425781 L 12.371094 -6.417969 L 5.902344 -23.425781 L 0.1875 -23.425781 L 9.746094 -0.28125 L 4.871094 11.714844 L 10.308594 11.714844 L 14.523438 1.3125 L 24.410156 -23.425781 Z M 18.648438 -23.425781 "/></g></g></g><g fill="#292929" fill-opacity="1"><g transform="translate(910.117128, 265.15946)"><g><path d="M 10.730469 0.46875 C 13.167969 0.46875 15.179688 -0.1875 16.679688 -1.546875 C 18.179688 -2.859375 18.929688 -4.636719 18.929688 -6.792969 C 18.929688 -7.777344 18.742188 -8.667969 18.367188 -9.464844 C 17.992188 -10.261719 17.429688 -10.964844 16.679688 -11.527344 C 15.929688 -12.089844 15.273438 -12.511719 14.617188 -12.886719 C 13.960938 -13.214844 13.214844 -13.542969 12.277344 -13.914062 C 12.183594 -13.914062 12.136719 -13.960938 12.042969 -14.007812 L 11.808594 -14.054688 C 11.761719 -14.054688 11.714844 -14.101562 11.621094 -14.195312 C 9.089844 -15.132812 7.824219 -16.164062 7.824219 -17.242188 C 7.824219 -18.039062 8.105469 -18.648438 8.667969 -19.070312 C 9.230469 -19.492188 9.980469 -19.679688 10.917969 -19.632812 C 12.699219 -19.539062 13.960938 -18.835938 14.757812 -17.570312 L 18.273438 -20.382812 C 17.429688 -21.460938 16.304688 -22.304688 14.945312 -22.957031 C 13.589844 -23.566406 12.183594 -23.894531 10.777344 -23.894531 C 8.386719 -23.894531 6.417969 -23.238281 4.917969 -21.976562 C 3.375 -20.664062 2.625 -18.976562 2.625 -16.867188 C 2.625 -15.085938 3.140625 -13.679688 4.21875 -12.605469 C 5.246094 -11.527344 6.839844 -10.636719 8.949219 -9.886719 L 9.652344 -9.605469 C 10.777344 -9.183594 11.527344 -8.902344 11.902344 -8.714844 C 12.277344 -8.527344 12.652344 -8.246094 13.074219 -7.871094 C 13.449219 -7.449219 13.679688 -6.980469 13.679688 -6.511719 C 13.679688 -5.667969 13.355469 -5.011719 12.699219 -4.542969 C 12.042969 -4.078125 11.199219 -3.84375 10.121094 -3.890625 C 8.105469 -3.984375 6.511719 -4.824219 5.339844 -6.511719 L 1.640625 -3.84375 C 2.4375 -2.53125 3.703125 -1.5 5.386719 -0.703125 C 7.074219 0.09375 8.855469 0.46875 10.730469 0.46875 Z M 10.730469 0.46875 "/></g></g></g><g fill="#292929" fill-opacity="1"><g transform="translate(930.636312, 265.15946)"><g><path d="M 15.742188 -23.425781 L 11.011719 -23.425781 L 11.011719 -31.859375 L 5.761719 -31.859375 L 5.761719 -23.425781 L 1.03125 -23.425781 L 1.03125 -19.023438 L 5.761719 -19.023438 L 5.761719 0 L 11.011719 0 L 11.011719 -19.023438 L 15.742188 -19.023438 Z M 15.742188 -23.425781 "/></g></g></g><g fill="#292929" fill-opacity="1"><g transform="translate(947.40773, 265.15946)"><g><path d="M 26.707031 -11.902344 C 26.660156 -15.367188 25.488281 -18.273438 23.191406 -20.523438 C 20.898438 -22.769531 18.039062 -23.894531 14.664062 -23.894531 C 11.105469 -23.894531 8.152344 -22.722656 5.808594 -20.382812 C 3.46875 -18.039062 2.296875 -15.132812 2.296875 -11.714844 C 2.296875 -8.246094 3.421875 -5.339844 5.761719 -3 C 8.058594 -0.65625 11.058594 0.46875 14.804688 0.46875 C 17.148438 0.46875 19.257812 -0.09375 21.179688 -1.265625 C 23.050781 -2.390625 24.503906 -3.984375 25.488281 -5.949219 L 21.039062 -7.730469 C 19.585938 -5.339844 17.476562 -4.171875 14.710938 -4.171875 C 12.839844 -4.171875 11.199219 -4.777344 9.839844 -5.996094 C 8.480469 -7.214844 7.730469 -8.808594 7.542969 -10.777344 L 26.660156 -10.777344 Z M 14.617188 -19.351562 C 16.117188 -19.351562 17.429688 -18.929688 18.554688 -18.132812 C 19.679688 -17.289062 20.476562 -16.164062 20.992188 -14.757812 L 8.058594 -14.757812 C 8.574219 -16.164062 9.417969 -17.242188 10.589844 -18.085938 C 11.714844 -18.929688 13.074219 -19.351562 14.617188 -19.351562 Z M 14.617188 -19.351562 "/></g></g></g><g fill="#292929" fill-opacity="1"><g transform="translate(976.406326, 265.15946)"><g><path d="M 28.207031 -23.894531 C 25.300781 -23.894531 23.003906 -22.675781 21.273438 -20.335938 C 20.476562 -21.414062 19.492188 -22.257812 18.320312 -22.910156 C 17.148438 -23.566406 15.929688 -23.894531 14.710938 -23.894531 C 12.464844 -23.894531 10.636719 -22.957031 9.136719 -21.179688 L 9.136719 -23.425781 L 3.9375 -23.425781 L 3.9375 0 L 9.136719 0 L 9.136719 -14.382812 C 9.136719 -15.695312 9.511719 -16.773438 10.355469 -17.664062 C 11.152344 -18.507812 12.183594 -18.976562 13.496094 -18.976562 C 14.710938 -18.976562 15.742188 -18.554688 16.585938 -17.710938 C 17.429688 -16.867188 17.851562 -15.789062 17.851562 -14.570312 L 17.851562 0 L 23.050781 0 L 23.050781 -14.382812 C 23.050781 -15.695312 23.425781 -16.773438 24.269531 -17.664062 C 25.066406 -18.507812 26.097656 -18.976562 27.363281 -18.976562 C 28.582031 -18.976562 29.613281 -18.554688 30.457031 -17.710938 C 31.300781 -16.867188 31.722656 -15.789062 31.722656 -14.570312 L 31.722656 0 L 36.921875 0 L 36.921875 -14.851562 C 36.921875 -17.382812 36.078125 -19.492188 34.390625 -21.273438 C 32.703125 -23.003906 30.644531 -23.894531 28.207031 -23.894531 Z M 28.207031 -23.894531 "/></g></g></g><g fill="#292929" fill-opacity="1"><g transform="translate(519.484371, 188.954681)"><g><path d="M 11.71875 7.078125 L 11.71875 -108.59375 L 80.109375 -108.59375 L 80.109375 -91.5625 L 31.75 -91.5625 L 31.75 -63.359375 L 73.296875 -63.359375 L 73.296875 -46.1875 L 31.75 -46.1875 L 31.75 -9.953125 L 80.109375 -9.953125 L 80.109375 7.078125 Z M 11.71875 7.078125 "/></g></g></g><g fill="#292929" fill-opacity="1"><g transform="translate(606.410158, 188.954681)"><g><path d="M 11.71875 7.21875 L 11.71875 -108.734375 L 44.546875 -108.734375 C 49.816406 -108.734375 54.769531 -108.273438 59.40625 -107.359375 C 64.039062 -106.453125 68.101562 -104.863281 71.59375 -102.59375 C 75.09375 -100.320312 77.84375 -97.300781 79.84375 -93.53125 C 81.84375 -89.757812 82.84375 -85.015625 82.84375 -79.296875 C 82.84375 -77.660156 82.546875 -75.726562 81.953125 -73.5 C 81.359375 -71.28125 80.515625 -69.054688 79.421875 -66.828125 C 78.335938 -64.609375 76.976562 -62.519531 75.34375 -60.5625 C 73.707031 -58.613281 71.800781 -57.09375 69.625 -56 C 72.257812 -55.457031 74.710938 -54.457031 76.984375 -53 C 79.253906 -51.550781 81.226562 -49.644531 82.90625 -47.28125 C 84.582031 -44.914062 85.898438 -42.144531 86.859375 -38.96875 C 87.816406 -35.789062 88.296875 -32.203125 88.296875 -28.203125 C 88.296875 -22.484375 87.269531 -17.421875 85.21875 -13.015625 C 83.175781 -8.609375 80.289062 -4.90625 76.5625 -1.90625 C 72.84375 1.09375 68.367188 3.363281 63.140625 4.90625 C 57.921875 6.445312 52.179688 7.21875 45.921875 7.21875 Z M 43.1875 -62.265625 C 49.914062 -62.265625 54.820312 -63.625 57.90625 -66.34375 C 60.988281 -69.070312 62.53125 -72.890625 62.53125 -77.796875 C 62.53125 -82.703125 61.03125 -86.3125 58.03125 -88.625 C 55.039062 -90.945312 50.273438 -92.109375 43.734375 -92.109375 L 31.609375 -92.109375 L 31.609375 -62.265625 Z M 44.140625 -9.40625 C 52.222656 -9.40625 58.101562 -11.109375 61.78125 -14.515625 C 65.46875 -17.921875 67.3125 -22.753906 67.3125 -29.015625 C 67.3125 -32.109375 66.765625 -34.765625 65.671875 -36.984375 C 64.578125 -39.210938 63.050781 -41.03125 61.09375 -42.4375 C 59.144531 -43.84375 56.832031 -44.882812 54.15625 -45.5625 C 51.476562 -46.25 48.550781 -46.59375 45.375 -46.59375 L 31.609375 -46.59375 L 31.609375 -9.40625 Z M 44.140625 -9.40625 "/></g></g></g><g fill="#292929" fill-opacity="1"><g transform="translate(700.148308, 188.954681)"><g><path d="M 11.578125 7.21875 L 11.578125 -108.734375 L 48.90625 -108.734375 C 58.445312 -108.734375 67.078125 -107.550781 74.796875 -105.1875 C 82.515625 -102.820312 89.144531 -99.253906 94.6875 -94.484375 C 100.226562 -89.722656 104.5 -83.753906 107.5 -76.578125 C 110.5 -69.398438 112 -60.953125 112 -51.234375 C 112 -41.960938 110.585938 -33.691406 107.765625 -26.421875 C 104.953125 -19.160156 100.863281 -13.054688 95.5 -8.109375 C 90.144531 -3.160156 83.515625 0.628906 75.609375 3.265625 C 67.710938 5.898438 58.632812 7.21875 48.375 7.21875 Z M 49.328125 -10.21875 C 55.585938 -10.21875 61.257812 -11.007812 66.34375 -12.59375 C 71.4375 -14.1875 75.773438 -16.640625 79.359375 -19.953125 C 82.953125 -23.273438 85.75 -27.476562 87.75 -32.5625 C 89.75 -37.644531 90.75 -43.6875 90.75 -50.6875 C 90.75 -58.039062 89.722656 -64.285156 87.671875 -69.421875 C 85.628906 -74.554688 82.769531 -78.753906 79.09375 -82.015625 C 75.414062 -85.285156 71.03125 -87.644531 65.9375 -89.09375 C 60.851562 -90.550781 55.316406 -91.28125 49.328125 -91.28125 L 31.875 -91.28125 L 31.875 -10.21875 Z M 49.328125 -10.21875 "/></g></g></g><g fill="#292929" fill-opacity="1"><g transform="translate(820.182197, 188.954681)"><g><path d="M 87.34375 7.21875 L 77.25 -20.171875 L 34.609375 -20.171875 L 24.53125 7.21875 L 3 7.21875 L 46.734375 -108.734375 L 65.265625 -108.734375 L 108.859375 7.21875 Z M 67.859375 -48.640625 C 67.035156 -51.367188 65.960938 -54.820312 64.640625 -59 C 63.328125 -63.175781 62.035156 -67.265625 60.765625 -71.265625 C 59.222656 -75.890625 57.632812 -80.703125 56 -85.703125 C 54.457031 -80.703125 52.910156 -75.929688 51.359375 -71.390625 C 50.722656 -69.484375 50.066406 -67.484375 49.390625 -65.390625 C 48.710938 -63.304688 48.078125 -61.285156 47.484375 -59.328125 C 46.890625 -57.378906 46.320312 -55.539062 45.78125 -53.8125 C 45.238281 -52.09375 44.738281 -50.550781 44.28125 -49.1875 L 40.46875 -36.921875 L 71.390625 -36.921875 Z M 67.859375 -48.640625 "/></g></g></g><g fill="#292929" fill-opacity="1"><g transform="translate(931.768773, 188.954681)"><g><path d="M 6.125 -18.9375 C 9.488281 -16.394531 12.738281 -14.375 15.875 -12.875 C 19.007812 -11.375 21.960938 -10.28125 24.734375 -9.59375 C 27.503906 -8.914062 30.113281 -8.484375 32.5625 -8.296875 C 35.019531 -8.117188 37.242188 -8.03125 39.234375 -8.03125 C 41.867188 -8.03125 44.390625 -8.414062 46.796875 -9.1875 C 49.203125 -9.96875 51.335938 -11.148438 53.203125 -12.734375 C 55.066406 -14.328125 56.566406 -16.300781 57.703125 -18.65625 C 58.835938 -21.019531 59.40625 -23.835938 59.40625 -27.109375 C 59.40625 -29.472656 58.972656 -31.65625 58.109375 -33.65625 C 57.242188 -35.65625 55.8125 -37.515625 53.8125 -39.234375 C 51.820312 -40.960938 49.164062 -42.617188 45.84375 -44.203125 C 42.53125 -45.796875 38.46875 -47.363281 33.65625 -48.90625 C 24.03125 -51.820312 16.945312 -56.003906 12.40625 -61.453125 C 7.863281 -66.898438 5.59375 -73.300781 5.59375 -80.65625 C 5.59375 -84.925781 6.40625 -88.898438 8.03125 -92.578125 C 9.664062 -96.253906 12.050781 -99.457031 15.1875 -102.1875 C 18.320312 -104.914062 22.207031 -107.070312 26.84375 -108.65625 C 31.476562 -110.25 36.789062 -111.046875 42.78125 -111.046875 C 45.320312 -111.046875 47.882812 -110.929688 50.46875 -110.703125 C 53.0625 -110.472656 55.515625 -110.15625 57.828125 -109.75 C 60.148438 -109.34375 62.332031 -108.863281 64.375 -108.3125 C 66.414062 -107.769531 68.164062 -107.179688 69.625 -106.546875 L 69.625 -85.296875 C 65.082031 -88.203125 60.609375 -90.265625 56.203125 -91.484375 C 51.796875 -92.710938 47.234375 -93.328125 42.515625 -93.328125 C 39.515625 -93.328125 36.96875 -92.960938 34.875 -92.234375 C 32.789062 -91.515625 31.085938 -90.5625 29.765625 -89.375 C 28.453125 -88.195312 27.476562 -86.859375 26.84375 -85.359375 C 26.207031 -83.859375 25.890625 -82.335938 25.890625 -80.796875 C 25.890625 -77.703125 26.882812 -74.929688 28.875 -72.484375 C 30.875 -70.035156 34.554688 -67.992188 39.921875 -66.359375 C 44.554688 -64.898438 49.28125 -63.238281 54.09375 -61.375 C 58.90625 -59.519531 63.285156 -57.113281 67.234375 -54.15625 C 71.191406 -51.207031 74.441406 -47.570312 76.984375 -43.25 C 79.523438 -38.9375 80.796875 -33.554688 80.796875 -27.109375 C 80.796875 -21.296875 79.632812 -16.09375 77.3125 -11.5 C 75 -6.914062 71.84375 -3.082031 67.84375 0 C 63.851562 3.082031 59.242188 5.441406 54.015625 7.078125 C 48.796875 8.710938 43.234375 9.53125 37.328125 9.53125 C 31.703125 9.53125 26.253906 9.050781 20.984375 8.09375 C 15.710938 7.144531 10.757812 5.492188 6.125 3.140625 Z M 6.125 -18.9375 "/></g></g></g></svg>